<?xml version="1.0" encoding="utf-8" ?>
<svg xmlns="http://www.w3.org/2000/svg" xmlns:xlink="http://www.w3.org/1999/xlink" width="22.5" height="12.75" viewBox="0 0 22.5 12.75">
	<path transform="matrix(1 0 0 1 0 0)" d="M21.375 2.25L1.125 2.25C0.81434 2.25 0.549175 2.14016 0.329505 1.92049C0.109835 1.70082 -2.98023e-08 1.43566 0 1.125C-2.98023e-08 0.81434 0.109835 0.549175 0.329505 0.329505C0.549175 0.109835 0.81434 0 1.125 0L21.375 0C21.6857 0 21.9508 0.109835 22.1705 0.329504C22.3902 0.549174 22.5 0.81434 22.5 1.125C22.5 1.43566 22.3902 1.70082 22.1705 1.92049C21.9508 2.14016 21.6857 2.25 21.375 2.25ZM17.625 7.5L4.875 7.5C4.56434 7.5 4.29917 7.39016 4.0795 7.17049C3.85984 6.95082 3.75 6.68566 3.75 6.375C3.75 6.06434 3.85984 5.79917 4.0795 5.5795C4.29917 5.35983 4.56434 5.25 4.875 5.25L17.625 5.25C17.9357 5.25 18.2008 5.35983 18.4205 5.5795C18.6402 5.79917 18.75 6.06434 18.75 6.375C18.75 6.68566 18.6402 6.95082 18.4205 7.17049C18.2008 7.39016 17.9357 7.5 17.625 7.5ZM13.125 12.75L9.375 12.75C9.06434 12.75 8.79917 12.6402 8.5795 12.4205C8.35983 12.2008 8.25 11.9357 8.25 11.625C8.25 11.3143 8.35983 11.0492 8.5795 10.8295C8.79917 10.6098 9.06434 10.5 9.375 10.5L13.125 10.5C13.4357 10.5 13.7008 10.6098 13.9205 10.8295C14.1402 11.0492 14.25 11.3143 14.25 11.625C14.25 11.9357 14.1402 12.2008 13.9205 12.4205C13.7008 12.6402 13.4357 12.75 13.125 12.75Z" fill-rule="nonzero" fill="rgb(24, 25, 26)"/>
</svg>
