<?xml version="1.0" encoding="UTF-8"?>
<svg version="1.1" xmlns="http://www.w3.org/2000/svg" width="34" height="34">
<path d="M0 0 C0.99 0 1.98 0 3 0 C3 0.66 3 1.32 3 2 C4.32 2 5.64 2 7 2 C7 1.34 7 0.68 7 0 C7.99 0 8.98 0 10 0 C10 0.66 10 1.32 10 2 C10.99 2 11.98 2 13 2 C13 1.34 13 0.68 13 0 C13.99 0 14.98 0 16 0 C16 0.66 16 1.32 16 2 C17.32 2 18.64 2 20 2 C20 1.34 20 0.68 20 0 C20.99 0 21.98 0 23 0 C23 0.66 23 1.32 23 2 C23.66 2 24.32 2 25 2 C25 6.95 25 11.9 25 17 C25.66 17 26.32 17 27 17 C27 22.61 27 28.22 27 34 C18.09 34 9.18 34 0 34 C0 31.36 0 28.72 0 26 C-0.99 25.67 -1.98 25.34 -3 25 C-3 24.34 -3 23.68 -3 23 C-4.32 23 -5.64 23 -7 23 C-6.54034292 15.69303751 -5.11670277 9.00242552 -3 2 C-2.01 2 -1.02 2 0 2 C0 1.34 0 0.68 0 0 Z " fill="#ECBF1B" transform="translate(7,0)"/>
<path d="M0 0 C8.91 0 17.82 0 27 0 C27 5.61 27 11.22 27 17 C18.09 17 9.18 17 0 17 C0 11.39 0 5.78 0 0 Z " fill="#2BBA9C" transform="translate(7,17)"/>
<path d="M0 0 C0.99 0 1.98 0 3 0 C3 0.66 3 1.32 3 2 C4.32 2 5.64 2 7 2 C7 1.34 7 0.68 7 0 C7.99 0 8.98 0 10 0 C10 0.66 10 1.32 10 2 C10.99 2 11.98 2 13 2 C13 1.34 13 0.68 13 0 C13.99 0 14.98 0 16 0 C16 0.66 16 1.32 16 2 C17.32 2 18.64 2 20 2 C20 1.34 20 0.68 20 0 C20.99 0 21.98 0 23 0 C23 0.66 23 1.32 23 2 C23.66 2 24.32 2 25 2 C25 3.65 25 5.3 25 7 C16.09 7 7.18 7 -2 7 C-2.33 5.35 -2.66 3.7 -3 2 C-2.01 2 -1.02 2 0 2 C0 1.34 0 0.68 0 0 Z " fill="#CD665A" transform="translate(7,0)"/>
<path d="M0 0 C0.33 0 0.66 0 1 0 C1 6.6 1 13.2 1 20 C-0.65 20 -2.3 20 -4 20 C-3.56615452 12.96871122 -2.25678003 6.670985 0 0 Z " fill="#F19C1E" transform="translate(4,3)"/>
<path d="M0 0 C2.31 0 4.62 0 7 0 C6.01 0.495 6.01 0.495 5 1 C5 1.66 5 2.32 5 3 C5.66 3.33 6.32 3.66 7 4 C6.01 4.66 5.02 5.32 4 6 C4.33 7.65 4.66 9.3 5 11 C4.01 11 3.02 11 2 11 C0 5.25 0 5.25 0 3 C0.66 2.67 1.32 2.34 2 2 C1.34 1.34 0.68 0.68 0 0 Z " fill="#37D7B8" transform="translate(17,22)"/>
<path d="M0 0 C0.66 0 1.32 0 2 0 C2 1.65 2 3.3 2 5 C0.35 5 -1.3 5 -3 5 C-1.125 1.125 -1.125 1.125 0 0 Z " fill="#16A287" transform="translate(32,29)"/>
<path d="M0 0 C1.65 0 3.3 0 5 0 C5 1.65 5 3.3 5 5 C3.0625 4.1875 3.0625 4.1875 1 3 C0.67 2.01 0.34 1.02 0 0 Z " fill="#16A287" transform="translate(29,17)"/>
<path d="M0 0 C2.5 1.375 2.5 1.375 5 3 C5 3.66 5 4.32 5 5 C3.35 5 1.7 5 0 5 C0 3.35 0 1.7 0 0 Z " fill="#15A186" transform="translate(7,29)"/>
<path d="M0 0 C1.65 0 3.3 0 5 0 C3.625 2.5 3.625 2.5 2 5 C1.34 5 0.68 5 0 5 C0 3.35 0 1.7 0 0 Z " fill="#19A284" transform="translate(7,17)"/>
</svg>
