<svg width="40" height="40" viewBox="0 0 40 40" fill="none" xmlns="http://www.w3.org/2000/svg">
<path d="M5.90502 5.36133H34.095C34.9839 5.36133 35.7046 6.08203 35.7046 6.97102V13.4137H4.29541V6.97094C4.29541 6.08195 5.01604 5.36133 5.90502 5.36133Z" fill="#DC4955"/>
<path d="M5.9051 5.36141C5.01611 5.36141 4.29541 6.08211 4.29541 6.97109V13.4138H6.66807V6.97102C6.66807 6.08203 7.38877 5.36133 8.27775 5.36133H5.9051V5.36141Z" fill="#C42430"/>
<path d="M34.095 5.36133H23.5649V13.4137H35.7047V6.97094C35.7047 6.08195 34.9841 5.36133 34.095 5.36133Z" fill="#C42430"/>
<path d="M34.0951 35.3712H5.9051C5.01611 35.3712 4.29541 34.6505 4.29541 33.7615V11.1055H35.7046V33.7615C35.7047 34.6505 34.9841 35.3712 34.0951 35.3712Z" fill="#F1F6F7"/>
<path d="M23.5649 13.9398C23.5649 14.6038 23.8413 15.2445 24.3234 15.6976C24.7744 16.1216 25.3634 16.3551 25.9818 16.355C26.5656 16.355 27.13 16.142 27.5712 15.7552L29.3959 14.1553C29.4393 14.1172 29.4947 14.0962 29.5517 14.0962H35.7047V11.1055H23.5649V13.9398Z" fill="#D2E4E7"/>
<path d="M6.76447 24.4588C6.73221 24.4588 6.70025 24.4602 6.66807 24.4605V11.1055H4.29541V33.7615C4.29541 34.6505 5.01611 35.3712 5.9051 35.3712H15.2777C15.4493 34.6872 15.541 33.9719 15.541 33.2353C15.5411 28.3959 11.6039 24.4588 6.76447 24.4588Z" fill="#D2E4E7"/>
<path d="M11.5812 8.60512C10.7166 8.60512 10.0156 7.90418 10.0156 7.03957V3.29895C10.0156 2.43434 10.7166 1.7334 11.5812 1.7334C12.4458 1.7334 13.1467 2.43434 13.1467 3.29895V7.03957C13.1467 7.90418 12.4458 8.60512 11.5812 8.60512Z" fill="#9BB9C3"/>
<path d="M19.9996 8.60512C19.135 8.60512 18.4341 7.90418 18.4341 7.03957V3.29895C18.4341 2.43434 19.135 1.7334 19.9996 1.7334C20.8642 1.7334 21.5652 2.43434 21.5652 3.29895V7.03957C21.5652 7.90418 20.8642 8.60512 19.9996 8.60512Z" fill="#9BB9C3"/>
<path d="M17.9188 19.1191H15.7393C15.5171 19.1191 15.3369 18.9389 15.3369 18.7166V16.5372C15.3369 16.3149 15.5171 16.1348 15.7393 16.1348H17.9188C18.1411 16.1348 18.3212 16.3149 18.3212 16.5372V18.7166C18.3211 18.9389 18.141 19.1191 17.9188 19.1191Z" fill="#9BB9C3"/>
<path d="M24.2607 19.1191H22.0811C21.8589 19.1191 21.6787 18.9389 21.6787 18.7166V16.5372C21.6787 16.3149 21.8589 16.1348 22.0811 16.1348H24.2606C24.4828 16.1348 24.663 16.3149 24.663 16.5372V18.7166C24.6631 18.9389 24.4829 19.1191 24.2607 19.1191Z" fill="#9BB9C3"/>
<path d="M30.6029 19.1191H28.4234C28.2012 19.1191 28.021 18.9389 28.021 18.7166V16.5372C28.021 16.3149 28.2012 16.1348 28.4234 16.1348H30.6029C30.8251 16.1348 31.0053 16.3149 31.0053 16.5372V18.7166C31.0053 18.9389 30.8251 19.1191 30.6029 19.1191Z" fill="#DC4955"/>
<path d="M11.5765 24.7304H9.39705C9.17478 24.7304 8.99463 24.5502 8.99463 24.328V22.1485C8.99463 21.9263 9.17478 21.7461 9.39705 21.7461H11.5765C11.7988 21.7461 11.9789 21.9263 11.9789 22.1485V24.328C11.9789 24.5502 11.7988 24.7304 11.5765 24.7304Z" fill="#9BB9C3"/>
<path d="M17.9188 24.7304H15.7393C15.5171 24.7304 15.3369 24.5502 15.3369 24.328V22.1485C15.3369 21.9263 15.5171 21.7461 15.7393 21.7461H17.9188C18.1411 21.7461 18.3212 21.9263 18.3212 22.1485V24.328C18.3211 24.5502 18.141 24.7304 17.9188 24.7304Z" fill="#9BB9C3"/>
<path d="M24.2607 24.7304H22.0811C21.8589 24.7304 21.6787 24.5502 21.6787 24.328V22.1485C21.6787 21.9263 21.8589 21.7461 22.0811 21.7461H24.2606C24.4828 21.7461 24.663 21.9263 24.663 22.1485V24.328C24.6631 24.5502 24.4829 24.7304 24.2607 24.7304Z" fill="#9BB9C3"/>
<path d="M30.6029 24.7304H28.4234C28.2012 24.7304 28.021 24.5502 28.021 24.328V22.1485C28.021 21.9263 28.2012 21.7461 28.4234 21.7461H30.6029C30.8251 21.7461 31.0053 21.9263 31.0053 22.1485V24.328C31.0053 24.5502 30.8251 24.7304 30.6029 24.7304Z" fill="#DC4955"/>
<path d="M17.9188 30.3427H15.7393C15.5171 30.3427 15.3369 30.1625 15.3369 29.9403V27.7608C15.3369 27.5386 15.5171 27.3584 15.7393 27.3584H17.9188C18.1411 27.3584 18.3212 27.5386 18.3212 27.7608V29.9403C18.3211 30.1625 18.141 30.3427 17.9188 30.3427Z" fill="#9BB9C3"/>
<path d="M24.2607 30.3427H22.0811C21.8589 30.3427 21.6787 30.1625 21.6787 29.9403V27.7608C21.6787 27.5386 21.8589 27.3584 22.0811 27.3584H24.2606C24.4828 27.3584 24.663 27.5386 24.663 27.7608V29.9403C24.6631 30.1625 24.4829 30.3427 24.2607 30.3427Z" fill="#9BB9C3"/>
<path d="M11.5765 19.1191H9.39705C9.17478 19.1191 8.99463 18.9389 8.99463 18.7166V16.5372C8.99463 16.3149 9.17478 16.1348 9.39705 16.1348H11.5765C11.7988 16.1348 11.9789 16.3149 11.9789 16.5372V18.7166C11.9789 18.9389 11.7988 19.1191 11.5765 19.1191Z" fill="#9BB9C3"/>
<path d="M30.6029 30.3427H28.4234C28.2012 30.3427 28.021 30.1625 28.021 29.9403V27.7608C28.021 27.5386 28.2012 27.3584 28.4234 27.3584H30.6029C30.8251 27.3584 31.0053 27.5386 31.0053 27.7608V29.9403C31.0053 30.1625 30.8251 30.3427 30.6029 30.3427Z" fill="#DC4955"/>
<path d="M37.7463 12.0844H29.5515C29.0063 12.0844 28.4796 12.2827 28.069 12.6428L26.2444 14.2426C25.9843 14.4706 25.5767 14.2859 25.5767 13.94V2.26211C25.5767 1.01273 26.5856 0 27.8303 0H37.7463C38.9909 0 39.9998 1.01273 39.9998 2.26211V9.82227C39.9998 11.0716 38.9909 12.0844 37.7463 12.0844Z" fill="#7398D4"/>
<path d="M27.8302 0C26.5856 0 25.5767 1.01273 25.5767 2.26211V13.94C25.5767 14.2859 25.9842 14.4706 26.2444 14.2426L26.8799 13.6853V2.26211C26.88 1.01273 27.8889 0 29.1335 0L27.8302 0Z" fill="#4377C4"/>
<path d="M6.76445 26.4707C3.02852 26.4707 0 29.4993 0 33.2352C0 36.9711 3.02852 39.9996 6.76445 39.9996C10.5003 39.9996 13.5289 36.9711 13.5289 33.2352C13.5289 29.4993 10.5003 26.4707 6.76445 26.4707Z" fill="#FFE17D"/>
<path d="M7.05461 37L5.43461 34.174V33.508H5.97461C6.19061 33.508 6.37961 33.478 6.54161 33.418C6.70961 33.352 6.84761 33.259 6.95561 33.139C7.06961 33.019 7.14761 32.875 7.18961 32.707H5.43461V32.041H7.18061C7.14461 31.885 7.08161 31.747 6.99161 31.627C6.90761 31.507 6.79361 31.414 6.64961 31.348C6.51161 31.276 6.34361 31.24 6.14561 31.24H5.43461V30.574H9.49361V31.24H8.08061C8.18261 31.354 8.26661 31.477 8.33261 31.609C8.40461 31.741 8.45261 31.885 8.47661 32.041H9.49361V32.707H8.49461C8.43461 33.151 8.26361 33.499 7.98161 33.751C7.69961 33.997 7.33661 34.165 6.89261 34.255L8.65661 37H7.05461Z" fill="#FFD164"/>
<path d="M1.80797 33.2351C1.80797 29.8059 4.36023 26.9746 7.66844 26.5326C7.37258 26.493 7.07117 26.4707 6.76445 26.4707C3.02852 26.4706 0 29.4992 0 33.2351C0 36.971 3.02852 39.9995 6.76445 39.9995C7.07117 39.9995 7.3725 39.9772 7.66844 39.9377C4.36023 39.4955 1.80797 36.6643 1.80797 33.2351Z" fill="#FFD164"/>
<path d="M29.179 9.94809C28.8553 9.94809 28.593 9.68574 28.593 9.36215V4.61816H27.8184C27.4947 4.61816 27.2324 4.35582 27.2324 4.03223C27.2324 3.70863 27.4947 3.44629 27.8184 3.44629H29.179C29.5027 3.44629 29.7649 3.70863 29.7649 4.03223V9.36207C29.7649 9.68574 29.5027 9.94809 29.179 9.94809Z" fill="#F1F6F7"/>
<path d="M34.1423 10.0175C33.8377 10.0175 33.5684 9.82402 33.4713 9.53511C33.469 9.52824 33.4667 9.52128 33.4647 9.51425L32.4762 6.16347L31.8751 9.49347C31.8176 9.81199 31.5124 10.0232 31.1944 9.96605C30.8759 9.90855 30.6644 9.60378 30.7218 9.28535L31.6708 4.02738C31.7327 3.70519 31.999 3.46972 32.3198 3.44816C32.6404 3.42613 32.9359 3.62441 33.0383 3.92917C33.0405 3.93597 33.0427 3.94292 33.0448 3.94988L34.1345 7.64371L35.1858 3.95589C35.1877 3.94917 35.1898 3.94246 35.192 3.93574C35.2912 3.63003 35.5849 3.42964 35.9052 3.44738C36.2259 3.46543 36.4948 3.698 36.5589 4.01285L37.5655 9.27941C37.6262 9.59722 37.4178 9.90417 37.1 9.96488C36.7818 10.0257 36.4752 9.81714 36.4145 9.49933L35.7762 6.15949L34.8217 9.50777C34.8198 9.51456 34.8177 9.52136 34.8155 9.52808C34.721 9.81925 34.4519 10.0158 34.1459 10.0175C34.1447 10.0175 34.1434 10.0175 34.1423 10.0175Z" fill="#F1F6F7"/>
</svg>
